<svg id="Ebene_1" data-name="Ebene 1" xmlns="http://www.w3.org/2000/svg" viewBox="0 0 70 70"><defs><style>.cls-1,.cls-2{fill:none;stroke:#666;stroke-miterlimit:10;}.cls-1{stroke-width:2px;}.cls-3{fill:#e2001a;}</style></defs><path class="cls-1" d="M61.83,56.76v-.08c0,10.87-3.07,12.32-27,12.32S8.17,67.57,8.17,56.7v.06"/><path class="cls-1" d="M61.83,56.76V8.9L54.54,2.15A158.32,158.32,0,0,0,34.83,1c-11.63,0-19,.81-19,.81L8.17,8.87V56.76"/><path class="cls-2" d="M53.39,2.73V59a2.89,2.89,0,0,1-2.46,3.07,106.46,106.46,0,0,1-16.44,1,105,105,0,0,1-16.33-1A3.42,3.42,0,0,1,15.1,59V2.73"/><path class="cls-3" d="M35.66,26.75c-6.26,0-11.33,1.41-11.33,3.15S29.4,33,35.66,33,47,31.63,47,29.9s-5.08-3.15-11.33-3.15"/><rect class="cls-2" x="20.68" y="41.85" width="10.88" height="8.25" rx="1.26"/><line class="cls-2" x1="8.34" y1="57.66" x2="61.81" y2="57.66"/></svg>